<svg xmlns="http://www.w3.org/2000/svg" version="1.1" xmlns:xlink="http://www.w3.org/1999/xlink" xmlns:svgjs="http://svgjs.dev/svgjs" width="1000" height="237" viewBox="0 0 1000 237"><g transform="matrix(1,0,0,1,-0.6060606060606233,-0.41005604802428763)"><svg viewBox="0 0 396 94" data-background-color="#ffffff" preserveAspectRatio="xMidYMid meet" height="237" width="1000" xmlns="http://www.w3.org/2000/svg" xmlns:xlink="http://www.w3.org/1999/xlink"><g id="tight-bounds" transform="matrix(1,0,0,1,0.2400000000000091,0.16263826377334567)"><svg viewBox="0 0 395.52 93.67472347245331" height="93.67472347245331" width="395.52"><g><svg viewBox="0 0 1043.7452108278892 247.20000000000002" height="93.67472347245331" width="395.52"><g><svg viewBox="0 0 1043.7452108278892 247.20000000000002" height="247.20000000000002" width="1043.7452108278892"><g><svg viewBox="0 0 1043.7452108278892 247.20000000000002" height="247.20000000000002" width="1043.7452108278892"><g><svg viewBox="0 0 1043.7452108278892 247.20000000000002" height="247.20000000000002" width="1043.7452108278892"><g><svg><g></g><g></g></svg></g><g><svg><g><svg></svg></g><g></g></svg></g><g id="text-0"><svg viewBox="0 0 1043.7452108278892 247.20000000000002" height="247.20000000000002" width="1043.7452108278892"><g transform="matrix(1,0,0,1,0,60.0555476529161)"><svg width="247.2" viewBox="3.9 -35.5 70.3 36" height="126.58890469416782" data-palette-color="#333333"><path d="M27.5 0L5.1 0Q4.6 0 4.25-0.35 3.9-0.7 3.9-1.2L3.9-1.2 3.9-33.75Q3.9-34.3 4.25-34.65 4.6-35 5.1-35L5.1-35 27.1-35Q27.65-35 28-34.65 28.35-34.3 28.35-33.75L28.35-33.75 28.35-30.45Q28.35-29.95 28-29.6 27.65-29.25 27.1-29.25L27.1-29.25 10.65-29.25 10.65-20.4 26-20.4Q26.55-20.4 26.9-20.08 27.25-19.75 27.25-19.2L27.25-19.2 27.25-16.1Q27.25-15.55 26.9-15.23 26.55-14.9 26-14.9L26-14.9 10.65-14.9 10.65-5.75 27.5-5.75Q28.05-5.75 28.4-5.4 28.75-5.05 28.75-4.5L28.75-4.5 28.75-1.2Q28.75-0.7 28.4-0.35 28.05 0 27.5 0L27.5 0ZM47.15 0.5L47.15 0.5Q42.5 0.5 39.37-0.88 36.25-2.25 34.62-4.48 33-6.7 32.9-9.15L32.9-9.15Q32.9-9.6 33.2-9.9 33.5-10.2 33.95-10.2L33.95-10.2 38.4-10.2Q39.05-10.2 39.37-9.93 39.7-9.65 39.95-9.25L39.95-9.25Q40.25-8.3 41.1-7.38 41.95-6.45 43.42-5.85 44.9-5.25 47.15-5.25L47.15-5.25Q50.75-5.25 52.52-6.45 54.3-7.65 54.3-9.7L54.3-9.7Q54.3-11.15 53.35-12.03 52.4-12.9 50.42-13.63 48.45-14.35 45.2-15.15L45.2-15.15Q41.45-16.05 38.92-17.32 36.4-18.6 35.12-20.55 33.85-22.5 33.85-25.5L33.85-25.5Q33.85-28.4 35.42-30.65 37-32.9 39.92-34.2 42.85-35.5 46.9-35.5L46.9-35.5Q50.15-35.5 52.65-34.63 55.15-33.75 56.8-32.33 58.45-30.9 59.32-29.28 60.2-27.65 60.25-26.1L60.25-26.1Q60.25-25.7 59.97-25.38 59.7-25.05 59.2-25.05L59.2-25.05 54.55-25.05Q54.15-25.05 53.75-25.25 53.35-25.45 53.1-26L53.1-26Q52.8-27.55 51.15-28.65 49.5-29.75 46.9-29.75L46.9-29.75Q44.2-29.75 42.55-28.75 40.9-27.75 40.9-25.65L40.9-25.65Q40.9-24.25 41.72-23.33 42.55-22.4 44.37-21.7 46.2-21 49.2-20.2L49.2-20.2Q53.45-19.25 56.15-18 58.85-16.75 60.1-14.83 61.35-12.9 61.35-9.95L61.35-9.95Q61.35-6.65 59.57-4.33 57.8-2 54.6-0.75 51.4 0.5 47.15 0.5ZM73 0L68.3 0Q67.8 0 67.45-0.35 67.1-0.7 67.1-1.2L67.1-1.2 67.1-33.8Q67.1-34.3 67.45-34.65 67.8-35 68.3-35L68.3-35 73-35Q73.55-35 73.87-34.65 74.2-34.3 74.2-33.8L74.2-33.8 74.2-1.2Q74.2-0.7 73.87-0.35 73.55 0 73 0L73 0Z" opacity="1" transform="matrix(1,0,0,1,0,0)" fill="#333333" class="undefined-iy-0"></path></svg></g><g><svg xmlns="http://www.w3.org/2000/svg" xmlns:xlink="http://www.w3.org/1999/xlink" version="1.1" x="260.952" y="0" viewBox="5.003250000000008 8.908 90.31575000000001 81.397" enable-background="new 0 0 100 100" xml:space="preserve" height="247.20000000000002" width="274.2859491136037" class="icon-wb-0" data-fill-palette-color="accent" id="wb-0"><path d="M54.621 8.908c-1.974 0-3.575 1.602-3.575 3.578 0 1.976 1.602 3.578 3.575 3.578 18.493 0 33.54 15.047 33.54 33.543 0 18.495-15.047 33.542-33.54 33.542-16.971 0-31.03-12.676-33.23-29.056l2.504 2.505c0.699 0.699 1.614 1.047 2.53 1.047 0.916 0 1.831-0.348 2.53-1.047 1.397-1.398 1.397-3.663 0-5.061l-8.922-8.922c-1.397-1.397-3.663-1.397-5.06 0l-8.922 8.922c-1.397 1.397-1.397 3.662 0 5.061 1.397 1.396 3.663 1.396 5.061 0l3.012-3.012c2.007 20.579 19.403 36.719 40.498 36.719 22.439 0 40.697-18.258 40.697-40.698C95.318 27.166 77.061 8.908 54.621 8.908z" fill="#165a9a" data-fill-palette-color="accent"></path><path d="M41.141 69.414c-0.971 0-1.941-0.369-2.682-1.11-1.481-1.481-1.482-3.883-0.001-5.364l11.856-11.86V27.108c0-2.095 1.698-3.793 3.791-3.793 2.094 0 3.79 1.698 3.79 3.793v25.541c0 1.006-0.398 1.97-1.109 2.682L43.823 68.303C43.083 69.043 42.112 69.414 41.141 69.414z" fill="#165a9a" data-fill-palette-color="accent"></path><path d="M81.644 51.94h-3.926c-1.381 0-2.5-1.119-2.5-2.5s1.119-2.5 2.5-2.5h3.926c1.381 0 2.5 1.119 2.5 2.5S83.024 51.94 81.644 51.94z" fill="#165a9a" data-fill-palette-color="accent"></path><path d="M72.316 71.539c-0.64 0-1.279-0.244-1.768-0.732l-2.776-2.776c-0.977-0.977-0.977-2.559 0-3.535s2.559-0.977 3.535 0l2.776 2.776c0.977 0.977 0.977 2.559 0 3.535C73.596 71.295 72.956 71.539 72.316 71.539z" fill="#165a9a" data-fill-palette-color="accent"></path><path d="M52.719 79.657c-1.381 0-2.5-1.119-2.5-2.5V73.23c0-1.381 1.119-2.5 2.5-2.5s2.5 1.119 2.5 2.5v3.927C55.219 78.538 54.1 79.657 52.719 79.657z" fill="#165a9a" data-fill-palette-color="accent"></path><path d="M69.541 35.117c-0.64 0-1.279-0.244-1.768-0.732-0.977-0.977-0.977-2.559 0-3.536l2.775-2.776c0.975-0.977 2.559-0.976 3.535 0 0.977 0.977 0.977 2.559 0 3.536l-2.775 2.776C70.821 34.873 70.181 35.117 69.541 35.117z" fill="#165a9a" data-fill-palette-color="accent"></path></svg><g></g></g><g transform="matrix(1,0,0,1,548.9899491136036,46.96520000000001)"><svg width="494.75526171428567" viewBox="1.15 -35 113.33999999999999 35" height="152.7696" data-palette-color="#333333"><path d="M17.4 0L12.8 0Q12.3 0 11.95-0.35 11.6-0.7 11.6-1.2L11.6-1.2 11.6-28.85 2.35-28.85Q1.85-28.85 1.5-29.2 1.15-29.55 1.15-30.05L1.15-30.05 1.15-33.75Q1.15-34.3 1.5-34.65 1.85-35 2.35-35L2.35-35 27.85-35Q28.4-35 28.75-34.65 29.1-34.3 29.1-33.75L29.1-33.75 29.1-30.05Q29.1-29.55 28.75-29.2 28.4-28.85 27.85-28.85L27.85-28.85 18.65-28.85 18.65-1.2Q18.65-0.7 18.3-0.35 17.95 0 17.4 0L17.4 0ZM40.05 0L35.35 0Q34.85 0 34.5-0.35 34.15-0.7 34.15-1.2L34.15-1.2 34.15-33.8Q34.15-34.3 34.5-34.65 34.85-35 35.35-35L35.35-35 40.05-35Q40.6-35 40.92-34.65 41.25-34.3 41.25-33.8L41.25-33.8 41.25-1.2Q41.25-0.7 40.92-0.35 40.6 0 40.05 0L40.05 0ZM54.55 0L50.34 0Q49.8 0 49.45-0.35 49.09-0.7 49.09-1.2L49.09-1.2 49.09-33.75Q49.09-34.3 49.45-34.65 49.8-35 50.34-35L50.34-35 54.3-35Q55-35 55.34-34.63 55.7-34.25 55.8-34.05L55.8-34.05 65.44-16.05 75.19-34.05Q75.3-34.25 75.65-34.63 76-35 76.69-35L76.69-35 80.59-35Q81.15-35 81.5-34.65 81.84-34.3 81.84-33.75L81.84-33.75 81.84-1.2Q81.84-0.7 81.5-0.35 81.15 0 80.59 0L80.59 0 76.4 0Q75.84 0 75.52-0.35 75.19-0.7 75.19-1.2L75.19-1.2 75.19-22.85 68.19-9.5Q67.94-9.05 67.55-8.72 67.15-8.4 66.5-8.4L66.5-8.4 64.44-8.4Q63.75-8.4 63.37-8.72 63-9.05 62.75-9.5L62.75-9.5 55.75-22.85 55.75-1.2Q55.75-0.7 55.4-0.35 55.05 0 54.55 0L54.55 0ZM113.24 0L90.84 0Q90.34 0 89.99-0.35 89.64-0.7 89.64-1.2L89.64-1.2 89.64-33.75Q89.64-34.3 89.99-34.65 90.34-35 90.84-35L90.84-35 112.84-35Q113.39-35 113.74-34.65 114.09-34.3 114.09-33.75L114.09-33.75 114.09-30.45Q114.09-29.95 113.74-29.6 113.39-29.25 112.84-29.25L112.84-29.25 96.39-29.25 96.39-20.4 111.74-20.4Q112.29-20.4 112.64-20.08 112.99-19.75 112.99-19.2L112.99-19.2 112.99-16.1Q112.99-15.55 112.64-15.23 112.29-14.9 111.74-14.9L111.74-14.9 96.39-14.9 96.39-5.75 113.24-5.75Q113.79-5.75 114.14-5.4 114.49-5.05 114.49-4.5L114.49-4.5 114.49-1.2Q114.49-0.7 114.14-0.35 113.79 0 113.24 0L113.24 0Z" opacity="1" transform="matrix(1,0,0,1,0,0)" fill="#333333" class="undefined-iy-1"></path></svg></g></svg></g></svg></g></svg></g></svg></g><g></g></svg></g><defs></defs></svg><rect width="395.52" height="93.67472347245331" fill="none" stroke="none" visibility="hidden"></rect></g></svg></g></svg>